<?xml version="1.0" encoding="iso-8859-1"?>
<!-- Generator: Adobe Illustrator 19.0.0, SVG Export Plug-In . SVG Version: 6.00 Build 0)  -->
<svg version="1.1" id="Capa_1" xmlns="http://www.w3.org/2000/svg" xmlns:xlink="http://www.w3.org/1999/xlink" x="0px" y="0px"
	 viewBox="0 0 512.001 512.001" style="enable-background:new 0 0 512.001 512.001;" xml:space="preserve">
<g>
	<g>
		<path d="M485.588,135.042H309.046c4.939-2.233,10.025-4.63,15.153-7.178c46.003-22.852,71.55-46.1,75.931-69.098
			c2.092-10.979,0.371-27.549-19.709-44.137C363.852,0.943,346.935-3.167,330.138,2.413c-23.123,7.681-44.342,34.02-63.069,78.287
			c-4.357,10.3-8.052,20.331-11.069,29.226c-3.017-8.896-6.711-18.926-11.069-29.226c-18.728-44.267-39.946-70.606-63.069-78.287
			c-16.798-5.582-33.713-1.469-50.283,12.217c-20.08,16.588-21.802,33.157-19.709,44.137c4.382,22.997,29.929,46.245,75.931,69.098
			c5.127,2.548,10.215,4.944,15.153,7.178H26.412c-5.56,0-10.07,4.508-10.07,10.07v92.258c0,5.561,4.509,10.07,10.07,10.07h35.234
			v254.49c0,5.561,4.509,10.07,10.07,10.07h138.156h92.257h138.156c5.562-0.001,10.071-4.509,10.071-10.071V247.44h35.234
			c5.56,0,10.07-4.508,10.07-10.07v-92.258C495.658,139.551,491.149,135.042,485.588,135.042z M36.482,227.301v-72.119h163.32
			v72.119H36.482z M199.803,491.86H81.786V247.44h118.016V491.86z M196.561,109.727c-38.812-19.307-61.864-38.745-64.908-54.734
			c-0.581-3.056-2.352-12.357,12.754-24.838c8.063-6.66,15.672-9.959,23.06-9.959c2.706,0,5.382,0.443,8.039,1.325
			c29.954,9.943,54.118,70.126,65.581,107.538C229.259,124.555,212.988,117.899,196.561,109.727z M292.06,491.86h-72.118V155.182
			h72.118V491.86z M270.903,129.065c11.445-37.403,35.591-97.577,65.584-107.54c2.66-0.883,5.338-1.326,8.046-1.326
			c7.387,0,15,3.299,23.06,9.958c15.107,12.479,13.335,21.781,12.754,24.838c-3.043,15.988-26.095,35.427-64.909,54.735
			C299.009,117.903,282.733,124.561,270.903,129.065z M430.215,491.86H312.199V247.44h118.016V491.86z M475.518,227.301h-163.32
			v-72.119h163.32V227.301z"/>
	</g>
</g>
<g>
	<g>
		<path d="M390.756,363.536c-12.959,0-12.98,20.139,0,20.139C403.715,383.675,403.736,363.536,390.756,363.536z"/>
	</g>
</g>
<g>
	<g>
		<path d="M390.756,395.759c-5.56,0-10.07,4.508-10.07,10.07v62.096c0,5.561,4.509,10.07,10.07,10.07s10.07-4.508,10.07-10.07
			v-62.096C400.826,400.267,396.317,395.759,390.756,395.759z"/>
	</g>
</g>
<g>
</g>
<g>
</g>
<g>
</g>
<g>
</g>
<g>
</g>
<g>
</g>
<g>
</g>
<g>
</g>
<g>
</g>
<g>
</g>
<g>
</g>
<g>
</g>
<g>
</g>
<g>
</g>
<g>
</g>
</svg>
